<?xml version="1.0" encoding="utf-8"?>
<!-- Generator: Adobe Illustrator 25.2.0, SVG Export Plug-In . SVG Version: 6.00 Build 0)  -->
<svg version="1.1" id="Layer_1" xmlns="http://www.w3.org/2000/svg" xmlns:xlink="http://www.w3.org/1999/xlink" x="0px" y="0px"
	 viewBox="0 0 1153.2 545.3" style="enable-background:new 0 0 1153.2 545.3;" xml:space="preserve">
<style type="text/css">
	.st0{fill:#FFFFFF;}
	.st1{fill:#255BEE;}
	.st2{enable-background:new    ;}
</style>
<g id="Layer_2_1_">
	<g id="Layer_22_copy_6">
		<g id="Layer_1_copy">
			<g>
				<path class="st0" d="M777.3,313.7c3.9,28.2,9.6,52.2,48.3,46.6C808.9,349,796.1,323.2,777.3,313.7z"/>
			</g>
		</g>
		<g>
			<path class="st1" d="M809,269.5c0,0,5.2,38.3,44.5,80.6c-3.7,5.6-18.4,10-18.4,10c14.8-0.6,29.1-5.4,41.3-13.9
				C876.4,346.2,823.1,314.8,809,269.5z"/>
		</g>
		<g>
			<path class="st1" d="M1109.9,328.4c-33.1-22.3-68.1-45.6-97.6-73.3C892.5,142.5,761.5,103.8,643.1,100.3
				C620.8,79,514.6-18,448.4,3c0,0,49.2-9.3,42,108.2c73-3.6,108.8,8.6,108.8,8.6c-108.3-12.9-225.4,28.9-294.4,60
				c108.3-29.5,375.4-56.7,566.1,95.7c76.1,60.8,173,119.8,266.4,85.3c0.3,0.2,0.3,0.2,0.5,0.2c-39.9,59.1-117.6,102.3-192.8,106.7
				c-4.1-0.5-8.2-1.3-12.3-2.2c-17.7-4.3-35.1-10.1-51.7-17.5l-28.7-12c-6.6-2.7-13.2-5.4-19.9-7.9l-0.5-0.2
				c-11.7-4.4-23.6-8-35.8-10.8c-22.1-4.7-40.4-4.4-56.9,0.7c-10.3,3.4-18.4,12.7-26.7,24c-6.2,10.5-14,20-23,28.2
				c-23.4,20.4-51.7,25-82.1,20.1c58.4,25.5,109.6,41.9,154.8,49.7c73.3,12.8,131.1,3.2,178.2-26c-17.5,8.3-38.5,17.5-62.7,21.1
				c-45.1,6.9-88.5,2.5-124.3-5.2c-30.4-6.4-60-16.3-88.2-29.4c16.7-3.9,29.4-15.9,40-28.9c14.6-18.1,25.5-38.5,37.7-42.4
				c24.5-7.9,52.6-1.2,75.7,6.6l0.2-0.2v0.2c2.9,1,6.1,2.2,8.8,3.2l0.5,0.3c11,4.1,22.8,9.1,33.8,13.7c3.9,1.7,7.8,3.4,11.7,4.9
				v-0.2c0.5,0.2,1.2,0.7,1.7,1c22.8,9.6,45.9,18.1,68.6,20.8c89.5-4.9,171.8-58.6,209.3-121.6
				C1139,347.7,1124.1,337.9,1109.9,328.4z M825.5,210.3c32.8,5.6,202.7,122.2,128.2,24.7c26.3,19.9,92.4,77.7,121.3,92.9
				C1039.6,376,833.6,215.9,825.5,210.3z"/>
		</g>
		<g class="st2">
			<path class="st0" d="M224.8,327.9h-95l7-22.9h64l3.6-11.9h-64l13.6-43.9l-9-13.7h108.2l-7,23h-64l-3.7,11.8h64L224.8,327.9z"/>
			<path class="st0" d="M272.7,249.3l-9-13.7h44.2l-10.7,34.7h33.2l10.6-34.7h31l-28.3,92.3h-31l10.6-34.7h-33.1l-10.7,34.7h-31
				L272.7,249.3z"/>
			<path class="st0" d="M490.9,235.5l-28.3,92.3h-31l9-29.6h-33.2l-9,29.6h-31l24.2-78.5l-9.1-13.8H490.9z M419.7,258.5l-5.1,16.9
				h33.2l5.1-16.9H419.7z"/>
			<path class="st0" d="M609.6,235.5L591,295.8h-17l7.1,32H550l-7.6-32H527l-9.9,32h-31l24.2-78.5l-9-13.7L609.6,235.5L609.6,235.5z
				 M538.4,258.5l-4.6,14.4H567l4.6-14.4H538.4z"/>
			<path class="st0" d="M629,249.3l-9-13.7h44.2l-10.6,34.7h16.1l22.1-16.7l5.4-18h31l-9.1,29.9l-21.6,16.3l11.6,16.1l-9.1,29.9h-31
				l5.4-18L663,293.1h-16.5l-10.6,34.7h-31L629,249.3z"/>
		</g>
		<g class="st2">
			<path class="st0" d="M95,446.4H0l24.1-78.6l-9-13.7h108.2l-7,23h-64L38,423.5h33l3.6-11.9H59.2l7-22.9h46.6L95,446.4z"/>
			<path class="st0" d="M242.1,354.1l-28.3,92.3h-31l9-29.6h-33.1l-9,29.6h-31l24.1-78.6l-9-13.7H242.1z M171,377.1l-5.1,16.9h33.2
				l5.1-16.9H171z"/>
			<path class="st0" d="M261.6,367.8l-9-13.7h146.9l-28.3,92.3h-31l21.4-69.4h-20.4l-21.4,69.4h-31l21.4-69.4h-20.4l-21.3,69.4h-31
				L261.6,367.8z"/>
			<path class="st0" d="M419,367.8l-9-13.7h44.2l-28.3,92.3h-31L419,367.8z"/>
			<path class="st0" d="M473.8,367.8l-9-13.7h43.7l20.9,41.3l12.7-41.3h31l-28.3,92.3h-30.6l-20.9-41.3l-12.7,41.3h-31L473.8,367.8z
				"/>
			<path class="st0" d="M663.5,446.4h-95l24.1-78.6l-9-13.7h108.2l-7,23h-64l-14.3,46.4h33l3.6-11.9h-15.4l7-22.9h46.6L663.5,446.4z
				"/>
		</g>
	</g>
	<g id="Layer_32">
		<g>
			<path class="st0" d="M812.1,518.2c-10.4-16.4-15.2-35.7-13.6-55.1c-16.8,10.5-40.2,47.9-40.2,47.9c18,4.4,36.2,7.3,54.6,8.8
				L812.1,518.2z"/>
		</g>
		<g>
			<path class="st0" d="M948.7,494.4c-12-0.1-23.9-1.8-35.5-4.9c3.6,5.8,7.9,11.3,12.8,16.1C933.8,502.4,941.4,498.6,948.7,494.4z"
				/>
		</g>
		<g>
			<path class="st0" d="M854.8,475.5l4.7-3.3c-20.1-7.5-36-14.6-40.1-15.9l-0.5-0.2c-2.6-0.9-4.9-1.6-7.5-2.6l-0.5,1.4
				c-4.4,15.9-1.9,35.5,6.5,52.6C828.8,495.6,841.3,484.8,854.8,475.5z"/>
		</g>
		<g>
			<path class="st0" d="M734.8,456.8v-1.9c-11.9,9.6-23.1,36.7-34.6,40.6c13.3,4.7,28.7,8.2,40.9,11.4l5.6,1.4l-0.7-1.2
				C735.5,491.3,735.1,472.2,734.8,456.8z"/>
		</g>
		<g>
			<path class="st0" d="M801.2,450.3c-18.9-5.8-35.5-11.4-53.7-4.7c-1.4,3.7-3.5,35.5,3.3,49.2C763.2,477.1,783.2,459.1,801.2,450.3
				z"/>
		</g>
		<g>
			<path class="st0" d="M916.3,509.1c-3.7-3.9-7-8-10-12.4c-10.7,9.6-18.9,13.8-33.6,19.6l-4.9,1.8l-2.3-4.4
				c-4.2-8.3-7.6-17-10-25.9c-12.5,9.1-24,19.6-34.1,31.3l-0.9,1.2C860,522.6,891.7,517.5,916.3,509.1z"/>
		</g>
		<g>
			<path class="st0" d="M902.2,486.4c-13.3-3.7-27.1-8.8-39.5-13.1l0.9,5.4c1.8,9.4,4.7,18.6,8.8,27.3
				C883.7,501.7,893.8,495,902.2,486.4z"/>
		</g>
	</g>
</g>
</svg>
